<svg width="24" height="25" viewBox="0 0 24 25" fill="none" xmlns="http://www.w3.org/2000/svg">
<path d="M9.59 9.36416L12.67 12.4992L9.59 15.6342L11 17.0795L15.5 12.4992L11 7.91881L9.59 9.36416ZM2 12.4992C2 18.1177 6.48 22.6777 12 22.6777C17.52 22.6777 22 18.1177 22 12.4992C22 6.88059 17.52 2.32059 12 2.32059C6.48 2.32059 2 6.88059 2 12.4992ZM20 12.4992C20 16.9981 16.42 20.642 12 20.642C7.58 20.642 4 16.9981 4 12.4992C4 8.00024 7.58 4.35631 12 4.35631C16.42 4.35631 20 8.00023 20 12.4992Z" fill="#9E9E9E"/>
</svg>
